<?xml version="1.0" encoding="utf-8"?>
<!-- Generator: Adobe Illustrator 17.1.0, SVG Export Plug-In . SVG Version: 6.00 Build 0)  -->
<!DOCTYPE svg PUBLIC "-//W3C//DTD SVG 1.1//EN" "http://www.w3.org/Graphics/SVG/1.1/DTD/svg11.dtd">
<svg version="1.1" id="Layer_1" xmlns="http://www.w3.org/2000/svg" xmlns:xlink="http://www.w3.org/1999/xlink" x="0px" y="0px"
	 viewBox="0 0 362 219.6" enable-background="new 0 0 362 219.6" xml:space="preserve">
<g>
	<path fill="none" d="M227.6,102.5c-29.6,2.1-71.9,12-73.6,48.2c-0.8,17,3.5,36.2,17.5,47.3c14,11.1,34.2,10.8,46.4-3.2
		c13.4-15.4,11.9-35,11.6-54.2C229.3,127.9,228.8,115.1,227.6,102.5z"/>
	<path fill="none" d="M282,150.7c-9.9,6.1-25.3,23.1-16.7,35.8c6.1,9.1,18.1,11.6,28.4,12.5c10.9,0.9,21.8,0.6,32.7,0
		c0.5-14.8,4.7-30.9,1.9-45.3C324.5,134.4,293.5,143.6,282,150.7z"/>
	<path d="M355.3,197.6c-5,0.1-10.1,0.4-15.1,0.7c0.7-18.8,7-41.2-2.2-58.1c-11.6-21.5-51-8.8-66,0.5c-23.3,14.4-32.2,49.7-5.6,65.1
		c25.3,14.6,61.3,6.3,88.8,5.6C364.2,211.1,364.2,197.4,355.3,197.6z"/>
	<path fill="#FFFFFF" d="M326.4,199c-10.9,0.6-21.8,0.9-32.7,0c-10.3-0.9-22.3-3.4-28.4-12.5c-8.6-12.8,6.8-29.7,16.7-35.8
		c11.5-7.1,42.6-16.3,46.3,3.1C331.1,168.1,326.9,184.2,326.4,199z"/>
	<path d="M181.8,0.2c-8.6-2.1-12.3,11.2-3.7,13.3c32.4,7.7,42.3,41.1,47.1,70c0.3,1.8,0.5,3.6,0.8,5.4
		c-36.1,2.8-80.5,16.2-85.4,58.1c-4.4,37.9,22.5,81.2,65,71.2c49.5-11.7,38.8-82.5,35.3-118.7C237.2,60.2,226.3,10.8,181.8,0.2z"/>
	<path fill="#FFFFFF" d="M217.9,194.7c-12.2,14-32.3,14.3-46.4,3.2c-14.1-11.1-18.4-30.3-17.5-47.3c1.8-36.2,44-46.1,73.6-48.2
		c1.2,12.6,1.7,25.4,1.9,38C229.8,159.7,231.3,179.3,217.9,194.7z"/>
	<g>
		<path fill="#010101" d="M114.7,109.8c0,0,0,64,0,95c0,9,14,9,14,0c0-31,0-63,0-95C128.7,100.8,114.7,100.8,114.7,109.8
			L114.7,109.8z"/>
	</g>
	<path d="M128.7,84.2c0,3.8-3.1,6.8-6.8,6.8c-3.8,0-6.8-3.1-6.8-6.8c0-3.8,3.1-6.8,6.8-6.8C125.7,77.4,128.7,80.4,128.7,84.2z"/>
	<path d="M96.9,199c-25.5-17.5-51-35.1-76.5-52.6c21.4-16.5,42.8-33.1,64.2-49.6c7-5.4-2.7-15.1-9.7-9.7
		C54.6,102.8,34,118.5,14,134.2c0-37.8,0-75.4,0-113.4c0-9-14-9-14,0c0,61,0,123,0,184c0,9,14,9,14,0c0-15,0-30.7,0-46.2
		c25,17.4,50.7,34.9,76.1,52.3C97.4,216,104.2,204,96.9,199z"/>
	<path d="M198.4,155.6c0,3.8-3.1,6.8-6.8,6.8c-3.8,0-6.8-3.1-6.8-6.8c0-3.8,3.1-6.8,6.8-6.8C195.4,148.8,198.4,151.8,198.4,155.6z"
		/>
	<path d="M295,172.1c0,3.8-3.1,6.8-6.8,6.8c-3.8,0-6.8-3.1-6.8-6.8c0-3.8,3.1-6.8,6.8-6.8C291.9,165.3,295,168.4,295,172.1z"/>
	<g>
		<path fill="#141414" d="M320.5,22h-3.6v9.9h-1.5V22h-3.6v-1.2h8.6V22z"/>
		<path fill="#141414" d="M324,20.8l3.6,9.1l3.6-9.1h1.9v11.1h-1.5v-4.3l0.1-4.7l-3.6,9h-1.1l-3.6-9l0.1,4.6v4.3h-1.5V20.8H324z"/>
	</g>
</g>
</svg>
